<?xml version="1.0" encoding="UTF-8"?>
<svg width="1200pt" height="1200pt" version="1.1" viewBox="0 0 1200 1200" xmlns="http://www.w3.org/2000/svg">
 <g>
  <path d="m917.53 538.5c-47.93-19.973-217.68-51.922-217.68-103.85 0-51.922 373.45-151.78 373.45-151.78s-333.51 55.918-447.34 93.863c-113.83 37.941-57.914 107.84 25.961 145.79 83.879 37.945 71.895 61.91 71.895 61.91-13.98 73.891-431.37 157.77-627.08 195.71l291.57 239.65c75.887-23.965 199.71-55.918 487.29-183.73 423.38-193.71 91.863-277.59 41.938-297.56z"/>
  <path d="m528.11 534.51c-35.949-5.9922-69.898-17.973-99.855-35.945 23.965-15.977 43.934-33.949 61.91-55.918-41.938-7.9883-79.883-23.965-111.84-49.926 25.961-9.9844 47.93-29.957 65.902-51.922-77.887-13.98-139.8-73.891-157.77-149.78-15.977 73.891-75.891 131.8-149.78 147.78 15.977 19.969 35.949 37.945 59.914 49.926-29.957 23.965-65.902 41.938-105.84 51.926 15.977 19.973 35.949 37.945 57.914 53.922-27.957 17.973-59.914 29.957-93.859 37.945 55.918 69.898 141.79 115.83 237.65 115.83 93.863 1.9883 179.74-43.945 235.66-113.84z"/>
  <path d="m1103.3 438.65c9.9844-5.9922 17.973-13.98 25.961-21.969-15.977-1.9961-31.953-9.9844-45.93-19.969 9.9844-5.9922 19.969-11.984 25.961-21.969-31.953-5.9922-57.914-29.957-63.906-59.914-5.9922 29.957-29.957 53.922-59.914 59.914 5.9922 7.9883 13.98 15.977 23.965 19.973-11.984 9.9844-25.961 17.973-41.938 19.969 5.9922 7.9883 13.98 15.977 23.965 21.969-11.984 7.9883-23.965 11.98-37.945 15.977 21.969 27.961 57.914 47.93 95.859 47.93 37.945 0 73.891-17.973 95.863-45.934-15.98-3.9961-29.961-9.9883-41.941-15.977z"/>
  <path d="m675.89 294.86c23.965 0 45.93-11.984 57.914-27.957-7.9844-1.9961-17.973-3.9922-23.965-7.9883 5.9922-3.9961 11.984-7.9883 15.98-13.98-9.9844-1.9961-19.973-5.9922-27.961-11.98 5.9922-3.9961 11.984-7.9883 15.977-13.98-19.969-3.9961-35.945-17.973-39.941-37.945-3.9922 17.973-17.973 33.949-37.941 37.945 3.9922 5.9922 9.9844 9.9844 13.977 11.984-7.9844 5.9922-15.977 9.9844-25.961 11.98 3.9961 5.9922 7.9883 9.9844 13.98 13.98-7.9883 3.9961-15.977 7.9883-23.965 9.9844 15.973 15.973 37.941 27.957 61.906 27.957z"/>
 </g>
</svg>
