<?xml version="1.0" encoding="UTF-8"?>
<svg width="1200pt" height="1200pt" version="1.1" viewBox="0 0 1200 1200" xmlns="http://www.w3.org/2000/svg">
 <g>
  <path d="m785.54 995.62c0 15.32-12.422 27.742-27.742 27.742-15.324 0-27.746-12.422-27.746-27.742 0-15.324 12.422-27.746 27.746-27.746 15.32 0 27.742 12.422 27.742 27.746"/>
  <path d="m816.91 785.45c39.77-34.152 34.129-173.95 23.398-339.5-2.1602-33.238-4.0078-61.945-4.4648-81.77h0.003906c-0.70312-14.43-7.0664-28-17.711-37.766-10.645-9.7695-24.707-14.945-39.145-14.41-8.8672-0.24219-17.574 2.375-24.84 7.4648l-5.4961-128.04c-1.2852-14.812-8.3633-28.52-19.695-38.141-11.336-9.6211-26.008-14.383-40.832-13.246-11.395 1.3555-22.25 5.6016-31.535 12.336-0.91016-14.152-7.0938-27.453-17.328-37.27-10.973-10.93-26.027-16.746-41.496-16.035-14.902 0.53125-29.016 6.8398-39.348 17.59-10.336 10.75-16.082 25.102-16.023 40.012v6.5273c-9.4648-6.7188-20.898-10.098-32.496-9.5977h-0.33594c-16.211 0-31.711 6.6641-42.863 18.43-11.379 11.809-17.746 27.566-17.758 43.969-1.1992 81.984-3.7422 273.79-1.7031 284.59h-0.003907c3.1172 23.262 1.625 46.91-4.3906 69.598-1.8945 1.8477-7.6562 7.4141-10.031 7.4141 0 0.14453-3.2891 0.14453-10.945-7.4648v0.003906c-8.2305-34.168-20.191-67.324-35.664-98.879-41.977-65.617-80.879-56.977-100.27-45.961-33.406 18.938-17.062 47.785-8.3047 63.289h0.003906c5.2461 7.0898 8.4297 15.496 9.1914 24.285-5.4258 32.617 40.055 216.57 96.336 257.71 12.648 9.2656 29.016 19.895 45 30.312 18.152 11.105 35.57 23.363 52.152 36.699v49.68h-34.633c-3.8203 0-7.4805 1.5156-10.184 4.2148-2.6992 2.7031-4.2148 6.3633-4.2148 10.184v191.5c0 3.8203 1.5156 7.4805 4.2148 10.184 2.7031 2.6992 6.3633 4.2148 10.184 4.2148h377.38c3.8203 0 7.4844-1.5156 10.184-4.2148 2.6992-2.7031 4.2188-6.3633 4.2188-10.184v-191.52c0-3.8203-1.5195-7.4805-4.2188-10.184-2.6992-2.6992-6.3633-4.2148-10.184-4.2148h-38.109c-1.418-23.258-0.35937-74.043 31.965-101.81zm-8.2578 293.35h-348.6v-162.72l348.62-0.003906zm-299.56-191.52v-53.328c0-13.391-12.359-22.777-65.23-57.168-15.527-10.105-31.414-20.449-43.703-29.426-45.961-33.602-88.633-207.24-84.91-229.73h-0.007813c0.98438-15.422-3.4453-30.699-12.527-43.199-10.895-19.199-9.793-19.922-2.543-24 23.352-13.297 46.512 12.504 61.777 36.406 14.219 30.207 25.285 61.797 33.023 94.273 0.60156 2.332 1.7812 4.4805 3.4297 6.2383 8.0977 10.73 20.246 17.672 33.602 19.199 11.934-0.82812 23.035-6.4141 30.816-15.504 15.672-15.168 16.512-75.336 12.77-95.016-1.2734-12 0.55078-173.69 2.0898-279.55h-0.003906c-0.054687-9.1211 3.4492-17.902 9.7695-24.48 5.9336-6.2305 14.195-9.707 22.797-9.6016 7.5469-0.52734 14.926 2.375 20.09 7.8984 6.8633 6.6758 10.785 15.816 10.895 25.391l0.67188 306.27c0 5.1445 2.7461 9.8984 7.2031 12.469 4.4531 2.5742 9.9414 2.5742 14.398 0 4.457-2.5703 7.1992-7.3242 7.1992-12.469l0.50391-365.45c-0.042969-7.4141 2.8086-14.555 7.9414-19.906 5.1367-5.3477 12.152-8.4883 19.562-8.75 7.6016 0.03125 14.922 2.8594 20.57 7.9453 5.6484 5.4844 8.7812 13.055 8.6641 20.926l10.32 254.02 2.1367 116.71-0.003906 0.003907c0.0625 3.6445 1.5039 7.1289 4.0352 9.75 2.5273 2.625 5.957 4.1914 9.5977 4.3867 3.6094 0.058593 7.1172-1.1836 9.8828-3.5039 2.7656-2.3164 4.5977-5.5586 5.1641-9.1211l1.0078-9.4805-7.0547-323.14c-0.56641-6.332 1.75-12.586 6.3125-17.016 5.9688-6.0547 13.863-9.8398 22.32-10.703 17.207-2.6406 26.785 15.406 28.367 25.512l12 277.92 2.3984 74.711h0.003906c0.066407 3.8164 1.6445 7.4531 4.3945 10.105 2.7461 2.6562 6.4375 4.1094 10.254 4.0391 3.8203-0.066406 7.457-1.6445 10.109-4.3945 2.6523-2.7461 4.1055-6.4375 4.0391-10.254l-5.3516-165.36c3.8633-40.129 16.512-40.129 21.266-40.129 6.8672-0.38281 13.621 1.8984 18.852 6.3711 5.2305 4.4688 8.5352 10.781 9.2266 17.629 0.45703 20.449 2.3984 49.441 4.5117 83.016 6.5273 100.8 18.672 288.21-13.414 315.77-41.137 35.305-43.656 94.777-42.121 123.67z"/>
 </g>
</svg>
